<svg width="720" height="1080" viewBox="0 0 720 1080" fill="none" xmlns="http://www.w3.org/2000/svg">
  <rect width="720" height="1080" rx="72" fill="#020203"/>
  <defs>
    <linearGradient id="pinkBlue" x1="160" y1="0" x2="560" y2="1080" gradientUnits="userSpaceOnUse">
      <stop stop-color="#0EA5E9"/>
      <stop offset="0.34" stop-color="#E11D8E"/>
      <stop offset="0.62" stop-color="#7C3AED"/>
      <stop offset="1" stop-color="#F0065D"/>
    </linearGradient>
    <linearGradient id="bluePink" x1="560" y1="120" x2="180" y2="980" gradientUnits="userSpaceOnUse">
      <stop stop-color="#E6005C"/>
      <stop offset="0.42" stop-color="#2563EB"/>
      <stop offset="0.78" stop-color="#06B6D4"/>
      <stop offset="1" stop-color="#E6005C"/>
    </linearGradient>
    <filter id="softGlow" x="-30%" y="-20%" width="160%" height="140%">
      <feGaussianBlur stdDeviation="5" result="blur"/>
      <feColorMatrix in="blur" type="matrix" values="1 0 0 0 0.85 0 1 0 0 0 0 0 1 0 0.8 0 0 0 0.55 0"/>
      <feMerge>
        <feMergeNode/>
        <feMergeNode in="SourceGraphic"/>
      </feMerge>
    </filter>
  </defs>

  <g opacity="0.9" filter="url(#softGlow)">
    <path d="M-80 80 C 160 176 474 138 620 -58" stroke="#00A7E8" stroke-width="1.4"/>
    <path d="M-86 99 C 154 193 472 158 628 -32" stroke="#078ED6" stroke-width="1.4"/>
    <path d="M-92 118 C 148 210 470 178 636 -6" stroke="#1678C9" stroke-width="1.4"/>
    <path d="M-98 137 C 142 227 468 198 644 20" stroke="#2762C5" stroke-width="1.4"/>
    <path d="M-104 156 C 136 244 466 218 652 46" stroke="#3B4BC7" stroke-width="1.4"/>
    <path d="M-110 175 C 130 261 464 238 660 72" stroke="#5632C7" stroke-width="1.4"/>
    <path d="M-116 194 C 124 278 462 258 668 98" stroke="#761AC4" stroke-width="1.4"/>
    <path d="M-122 213 C 118 295 460 278 676 124" stroke="#9A09B8" stroke-width="1.4"/>
    <path d="M-128 232 C 112 312 458 298 684 150" stroke="#BD009B" stroke-width="1.4"/>
    <path d="M-134 251 C 106 329 456 318 692 176" stroke="#D60079" stroke-width="1.4"/>
  </g>

  <g opacity="0.88" filter="url(#softGlow)">
    <path d="M250 -90 C 356 130 314 300 456 430 C 590 553 600 698 400 860 C 268 967 305 1076 545 1168" stroke="url(#pinkBlue)" stroke-width="2"/>
    <path d="M272 -86 C 378 136 334 306 474 438 C 606 563 612 704 414 866 C 286 970 326 1074 568 1160" stroke="url(#pinkBlue)" stroke-width="2"/>
    <path d="M294 -82 C 400 142 354 312 492 446 C 622 573 624 710 428 872 C 304 973 347 1072 591 1152" stroke="url(#pinkBlue)" stroke-width="2"/>
    <path d="M316 -78 C 422 148 374 318 510 454 C 638 583 636 716 442 878 C 322 976 368 1070 614 1144" stroke="url(#pinkBlue)" stroke-width="2"/>
    <path d="M338 -74 C 444 154 394 324 528 462 C 654 593 648 722 456 884 C 340 979 389 1068 637 1136" stroke="url(#pinkBlue)" stroke-width="2"/>
    <path d="M360 -70 C 466 160 414 330 546 470 C 670 603 660 728 470 890 C 358 982 410 1066 660 1128" stroke="url(#pinkBlue)" stroke-width="2"/>
  </g>

  <g opacity="0.78">
    <path d="M700 300 C 472 372 276 334 230 500 C 190 646 420 660 414 808 C 408 946 220 908 134 1110" stroke="url(#bluePink)" stroke-width="1.6"/>
    <path d="M728 326 C 496 386 294 354 248 512 C 206 656 436 674 432 816 C 428 950 242 924 162 1118" stroke="url(#bluePink)" stroke-width="1.6"/>
    <path d="M756 352 C 520 400 312 374 266 524 C 222 666 452 688 450 824 C 448 954 264 940 190 1126" stroke="url(#bluePink)" stroke-width="1.6"/>
    <path d="M784 378 C 544 414 330 394 284 536 C 238 676 468 702 468 832 C 468 958 286 956 218 1134" stroke="url(#bluePink)" stroke-width="1.6"/>
    <path d="M812 404 C 568 428 348 414 302 548 C 254 686 484 716 486 840 C 488 962 308 972 246 1142" stroke="url(#bluePink)" stroke-width="1.6"/>
  </g>

  <g opacity="0.62">
    <path d="M84 145 C 328 312 590 264 572 506 C 560 676 306 628 322 790 C 340 966 620 880 760 1030" stroke="#E6005C" stroke-width="1.2"/>
    <path d="M96 171 C 342 326 590 290 562 516 C 540 688 310 646 336 798 C 368 984 638 908 772 1058" stroke="#D90072" stroke-width="1.2"/>
    <path d="M108 197 C 356 340 590 316 552 526 C 520 700 314 664 350 806 C 396 1002 656 936 784 1086" stroke="#C20093" stroke-width="1.2"/>
    <path d="M120 223 C 370 354 590 342 542 536 C 500 712 318 682 364 814 C 424 1020 674 964 796 1114" stroke="#8B21C9" stroke-width="1.2"/>
    <path d="M132 249 C 384 368 590 368 532 546 C 480 724 322 700 378 822 C 452 1038 692 992 808 1142" stroke="#0EA5E9" stroke-width="1.2"/>
  </g>

  <circle cx="388" cy="536" r="5" fill="#EC4899" opacity="0.55"/>
  <circle cx="336" cy="764" r="4" fill="#06B6D4" opacity="0.45"/>
  <circle cx="520" cy="420" r="4" fill="#7C3AED" opacity="0.55"/>
</svg>
